<svg width="24" height="24" viewBox="0 0 24 24" fill="none" xmlns="http://www.w3.org/2000/svg">
<g clip-path="url(#clip0_160:44)">
<path d="M12 0C9.62663 0 7.30655 0.703788 5.33316 2.02236C3.35977 3.34094 1.8217 5.21509 0.913451 7.4078C0.00519937 9.60051 -0.232441 12.0133 0.230582 14.3411C0.693605 16.6689 1.83649 18.8071 3.51472 20.4853C5.19295 22.1635 7.33115 23.3064 9.65892 23.7694C11.9867 24.2324 14.3995 23.9948 16.5922 23.0866C18.7849 22.1783 20.6591 20.6402 21.9776 18.6668C23.2962 16.6935 24 14.3734 24 12C23.9965 8.81847 22.7311 5.76824 20.4814 3.51856C18.2318 1.26887 15.1815 0.0034741 12 0V0ZM12 22.875C9.84913 22.875 7.74656 22.2372 5.95818 21.0422C4.16979 19.8473 2.77592 18.1488 1.95282 16.1617C1.12971 14.1745 0.914351 11.9879 1.33397 9.87839C1.75358 7.76885 2.78932 5.83111 4.31022 4.31021C5.83112 2.78932 7.76885 1.75357 9.8784 1.33396C11.9879 0.914346 14.1745 1.12971 16.1617 1.95281C18.1488 2.77591 19.8473 4.16979 21.0422 5.95817C22.2372 7.74656 22.875 9.84913 22.875 12C22.8715 14.8832 21.7247 17.6472 19.686 19.6859C17.6472 21.7247 14.8832 22.8715 12 22.875Z" fill="black"/>
<path d="M13.8974 6.72752C13.7919 6.62219 13.6489 6.56302 13.4999 6.56302C13.3508 6.56302 13.2078 6.62219 13.1024 6.72752L8.22737 11.6025C8.12203 11.708 8.06287 11.851 8.06287 12C8.06287 12.1491 8.12203 12.2921 8.22737 12.3975L13.1024 17.2725C13.209 17.3719 13.35 17.426 13.4958 17.4234C13.6415 17.4208 13.7805 17.3618 13.8836 17.2587C13.9866 17.1557 14.0457 17.0166 14.0483 16.8709C14.0508 16.7252 13.9967 16.5842 13.8974 16.4775L9.41987 12L13.8974 7.52252C14.0027 7.41705 14.0619 7.27409 14.0619 7.12502C14.0619 6.97596 14.0027 6.83299 13.8974 6.72752V6.72752Z" fill="black"/>
</g>
<defs>
<clipPath id="clip0_160:44">
<rect width="24" height="24" fill="white"/>
</clipPath>
</defs>
</svg>
