<svg width="53" height="26" viewBox="0 0 53 26" fill="none" xmlns="http://www.w3.org/2000/svg">
<path d="M48.9296 1H4.07036C2.37465 1 1 2.68298 1 4.75904V21.241C1 23.317 2.37465 25 4.07036 25H48.9296C50.6254 25 52 23.317 52 21.241V4.75904C52 2.68298 50.6254 1 48.9296 1Z" fill="#008000" stroke="black"/>
<path d="M9.27087 15.6088V20.1176H6.63416V7.32068H11.6263C12.5873 7.32068 13.431 7.49646 14.1576 7.84802C14.89 8.19958 15.4525 8.70056 15.8451 9.35095C16.2377 9.99548 16.434 10.7308 16.434 11.557C16.434 12.8109 16.0033 13.8011 15.142 14.5277C14.2865 15.2484 13.1 15.6088 11.5824 15.6088H9.27087ZM9.27087 13.473H11.6263C12.3236 13.473 12.8539 13.309 13.2172 12.9808C13.5863 12.6527 13.7709 12.184 13.7709 11.5746C13.7709 10.9476 13.5863 10.4408 13.2172 10.0541C12.848 9.66736 12.3383 9.46814 11.6879 9.45642H9.27087V13.473ZM23.4916 20.1176C23.3744 19.889 23.2894 19.6049 23.2367 19.265C22.6215 19.9506 21.8217 20.2933 20.8373 20.2933C19.9056 20.2933 19.1322 20.0238 18.517 19.4847C17.9076 18.9457 17.6029 18.266 17.6029 17.4457C17.6029 16.4379 17.975 15.6644 18.7191 15.1254C19.4691 14.5863 20.5502 14.3138 21.9623 14.308H23.1312V13.7631C23.1312 13.3236 23.017 12.972 22.7885 12.7084C22.5658 12.4447 22.2113 12.3129 21.725 12.3129C21.2972 12.3129 20.9603 12.4154 20.7142 12.6205C20.474 12.8256 20.3539 13.1068 20.3539 13.4642H17.8138C17.8138 12.9135 17.9838 12.4037 18.3236 11.9349C18.6635 11.4662 19.1439 11.1 19.765 10.8363C20.3861 10.5668 21.0834 10.432 21.8568 10.432C23.0287 10.432 23.9574 10.7279 24.6429 11.3197C25.3344 11.9056 25.6801 12.7318 25.6801 13.7982V17.9203C25.6859 18.8226 25.8119 19.5052 26.058 19.9681V20.1176H23.4916ZM21.391 18.351C21.766 18.351 22.1117 18.2689 22.4281 18.1049C22.7445 17.9349 22.9789 17.7094 23.1312 17.4281V15.7933H22.182C20.9105 15.7933 20.2338 16.2328 20.1517 17.1117L20.1429 17.2611C20.1429 17.5775 20.2543 17.8383 20.4769 18.0433C20.6996 18.2484 21.0043 18.351 21.391 18.351ZM30.4349 15.6088V20.1176H27.7982V7.32068H32.7904C33.7513 7.32068 34.5951 7.49646 35.3217 7.84802C36.0541 8.19958 36.6166 8.70056 37.0092 9.35095C37.4017 9.99548 37.598 10.7308 37.598 11.557C37.598 12.8109 37.1674 13.8011 36.306 14.5277C35.4506 15.2484 34.264 15.6088 32.7465 15.6088H30.4349ZM30.4349 13.473H32.7904C33.4877 13.473 34.0179 13.309 34.3812 12.9808C34.7504 12.6527 34.9349 12.184 34.9349 11.5746C34.9349 10.9476 34.7504 10.4408 34.3812 10.0541C34.0121 9.66736 33.5023 9.46814 32.8519 9.45642H30.4349V13.473ZM45.2181 16.7513C45.2181 16.2709 45.0834 15.89 44.8138 15.6088C44.5502 15.3217 44.099 15.058 43.4603 14.8177C42.8217 14.5775 42.2709 14.3402 41.808 14.1058C41.3451 13.8656 40.9467 13.5931 40.6127 13.2885C40.2845 12.9779 40.0267 12.6146 39.8392 12.1986C39.6576 11.7826 39.5668 11.2875 39.5668 10.7133C39.5668 9.72302 39.8832 8.9115 40.516 8.27869C41.1488 7.64587 41.9896 7.27673 43.0385 7.17126V5.29041H44.4447V7.19763C45.4818 7.34412 46.2933 7.77771 46.8793 8.49841C47.4652 9.21326 47.7582 10.142 47.7582 11.2845H45.2181C45.2181 10.5814 45.0717 10.057 44.7787 9.7113C44.4916 9.35974 44.1049 9.18396 43.6185 9.18396C43.1381 9.18396 42.766 9.32166 42.5023 9.59705C42.2386 9.86658 42.1068 10.2416 42.1068 10.722C42.1068 11.1674 42.2357 11.5248 42.4935 11.7943C42.7513 12.0638 43.2289 12.3392 43.9261 12.6205C44.6293 12.9017 45.2064 13.1683 45.6576 13.4203C46.1088 13.6664 46.4896 13.9476 46.8002 14.264C47.1107 14.5746 47.348 14.932 47.5121 15.3363C47.6761 15.7347 47.7582 16.2006 47.7582 16.7338C47.7582 17.7299 47.4476 18.5385 46.8265 19.1595C46.2054 19.7806 45.35 20.1469 44.2601 20.2582V22.0072H42.8627V20.267C41.6615 20.1381 40.7299 19.7133 40.0677 18.9926C39.4115 18.266 39.0834 17.3021 39.0834 16.101H41.6234C41.6234 16.7982 41.7875 17.3344 42.1156 17.7094C42.4496 18.0785 42.9271 18.2631 43.5482 18.2631C44.0638 18.2631 44.4711 18.1283 44.7699 17.8588C45.0687 17.5834 45.2181 17.2142 45.2181 16.7513Z" fill="#FFFF00"/>
</svg>
