<svg width="135" height="17" viewBox="0 0 135 17" fill="none" xmlns="http://www.w3.org/2000/svg">
<path d="M2.7793 10.4912V15H0.142578V2.20312H5.13477C6.0957 2.20312 6.93945 2.37891 7.66602 2.73047C8.39844 3.08203 8.96094 3.58301 9.35352 4.2334C9.74609 4.87793 9.94238 5.61328 9.94238 6.43945C9.94238 7.69336 9.51172 8.68359 8.65039 9.41016C7.79492 10.1309 6.6084 10.4912 5.09082 10.4912H2.7793ZM2.7793 8.35547H5.13477C5.83203 8.35547 6.3623 8.19141 6.72559 7.86328C7.09473 7.53516 7.2793 7.06641 7.2793 6.45703C7.2793 5.83008 7.09473 5.32324 6.72559 4.93652C6.35645 4.5498 5.84668 4.35059 5.19629 4.33887H2.7793V8.35547ZM11.0762 10.1572C11.0762 9.21387 11.2578 8.37305 11.6211 7.63477C11.9844 6.89648 12.5059 6.3252 13.1855 5.9209C13.8711 5.5166 14.665 5.31445 15.5674 5.31445C16.8506 5.31445 17.8965 5.70703 18.7051 6.49219C19.5195 7.27734 19.9736 8.34375 20.0674 9.69141L20.085 10.3418C20.085 11.8008 19.6777 12.9727 18.8633 13.8574C18.0488 14.7363 16.9561 15.1758 15.585 15.1758C14.2139 15.1758 13.1182 14.7363 12.2979 13.8574C11.4834 12.9785 11.0762 11.7832 11.0762 10.2715V10.1572ZM13.6162 10.3418C13.6162 11.2441 13.7861 11.9355 14.126 12.416C14.4658 12.8906 14.9521 13.1279 15.585 13.1279C16.2002 13.1279 16.6807 12.8936 17.0264 12.4248C17.3721 11.9502 17.5449 11.1943 17.5449 10.1572C17.5449 9.27246 17.3721 8.58691 17.0264 8.10059C16.6807 7.61426 16.1943 7.37109 15.5674 7.37109C14.9463 7.37109 14.4658 7.61426 14.126 8.10059C13.7861 8.58105 13.6162 9.32812 13.6162 10.3418ZM27.3447 14.0332C26.7178 14.7949 25.8506 15.1758 24.7432 15.1758C23.7236 15.1758 22.9443 14.8828 22.4053 14.2969C21.8721 13.7109 21.5996 12.8525 21.5879 11.7217V5.49023H24.1279V11.6338C24.1279 12.624 24.5791 13.1191 25.4814 13.1191C26.3428 13.1191 26.9346 12.8203 27.2568 12.2227V5.49023H29.8057V15H27.415L27.3447 14.0332ZM35.6768 13.1279C36.1455 13.1279 36.5264 12.999 36.8193 12.7412C37.1123 12.4834 37.2646 12.1406 37.2764 11.7129H39.6582C39.6523 12.3574 39.4766 12.9492 39.1309 13.4883C38.7852 14.0215 38.3105 14.4375 37.707 14.7363C37.1094 15.0293 36.4473 15.1758 35.7207 15.1758C34.3613 15.1758 33.2891 14.7451 32.5039 13.8838C31.7188 13.0166 31.3262 11.8213 31.3262 10.2979V10.1309C31.3262 8.66602 31.7158 7.49707 32.4951 6.62402C33.2744 5.75098 34.3438 5.31445 35.7031 5.31445C36.8926 5.31445 37.8447 5.6543 38.5596 6.33398C39.2803 7.00781 39.6465 7.90723 39.6582 9.03223H37.2764C37.2646 8.54004 37.1123 8.1416 36.8193 7.83691C36.5264 7.52637 36.1396 7.37109 35.6592 7.37109C35.0674 7.37109 34.6191 7.58789 34.3145 8.02148C34.0156 8.44922 33.8662 9.14648 33.8662 10.1133V10.377C33.8662 11.3555 34.0156 12.0586 34.3145 12.4863C34.6133 12.9141 35.0674 13.1279 35.6768 13.1279ZM40.7129 10.1572C40.7129 9.21387 40.8945 8.37305 41.2578 7.63477C41.6211 6.89648 42.1426 6.3252 42.8223 5.9209C43.5078 5.5166 44.3018 5.31445 45.2041 5.31445C46.4873 5.31445 47.5332 5.70703 48.3418 6.49219C49.1562 7.27734 49.6104 8.34375 49.7041 9.69141L49.7217 10.3418C49.7217 11.8008 49.3145 12.9727 48.5 13.8574C47.6855 14.7363 46.5928 15.1758 45.2217 15.1758C43.8506 15.1758 42.7549 14.7363 41.9346 13.8574C41.1201 12.9785 40.7129 11.7832 40.7129 10.2715V10.1572ZM43.2529 10.3418C43.2529 11.2441 43.4229 11.9355 43.7627 12.416C44.1025 12.8906 44.5889 13.1279 45.2217 13.1279C45.8369 13.1279 46.3174 12.8936 46.6631 12.4248C47.0088 11.9502 47.1816 11.1943 47.1816 10.1572C47.1816 9.27246 47.0088 8.58691 46.6631 8.10059C46.3174 7.61426 45.8311 7.37109 45.2041 7.37109C44.583 7.37109 44.1025 7.61426 43.7627 8.10059C43.4229 8.58105 43.2529 9.32812 43.2529 10.3418ZM61.2793 15C61.1621 14.7715 61.0771 14.4873 61.0244 14.1475C60.4092 14.833 59.6094 15.1758 58.625 15.1758C57.6934 15.1758 56.9199 14.9062 56.3047 14.3672C55.6953 13.8281 55.3906 13.1484 55.3906 12.3281C55.3906 11.3203 55.7627 10.5469 56.5068 10.0078C57.2568 9.46875 58.3379 9.19629 59.75 9.19043H60.9189V8.64551C60.9189 8.20605 60.8047 7.85449 60.5762 7.59082C60.3535 7.32715 59.999 7.19531 59.5127 7.19531C59.085 7.19531 58.748 7.29785 58.502 7.50293C58.2617 7.70801 58.1416 7.98926 58.1416 8.34668H55.6016C55.6016 7.7959 55.7715 7.28613 56.1113 6.81738C56.4512 6.34863 56.9316 5.98242 57.5527 5.71875C58.1738 5.44922 58.8711 5.31445 59.6445 5.31445C60.8164 5.31445 61.7451 5.61035 62.4307 6.20215C63.1221 6.78809 63.4678 7.61426 63.4678 8.68066V12.8027C63.4736 13.7051 63.5996 14.3877 63.8457 14.8506V15H61.2793ZM59.1787 13.2334C59.5537 13.2334 59.8994 13.1514 60.2158 12.9873C60.5322 12.8174 60.7666 12.5918 60.9189 12.3105V10.6758H59.9697C58.6982 10.6758 58.0215 11.1152 57.9395 11.9941L57.9307 12.1436C57.9307 12.46 58.042 12.7207 58.2646 12.9258C58.4873 13.1309 58.792 13.2334 59.1787 13.2334ZM72.7051 10.4912V15H70.0684V2.20312H75.0605C76.0215 2.20312 76.8652 2.37891 77.5918 2.73047C78.3242 3.08203 78.8867 3.58301 79.2793 4.2334C79.6719 4.87793 79.8682 5.61328 79.8682 6.43945C79.8682 7.69336 79.4375 8.68359 78.5762 9.41016C77.7207 10.1309 76.5342 10.4912 75.0166 10.4912H72.7051ZM72.7051 8.35547H75.0605C75.7578 8.35547 76.2881 8.19141 76.6514 7.86328C77.0205 7.53516 77.2051 7.06641 77.2051 6.45703C77.2051 5.83008 77.0205 5.32324 76.6514 4.93652C76.2822 4.5498 75.7725 4.35059 75.1221 4.33887H72.7051V8.35547ZM81.002 10.1572C81.002 9.21387 81.1836 8.37305 81.5469 7.63477C81.9102 6.89648 82.4316 6.3252 83.1113 5.9209C83.7969 5.5166 84.5908 5.31445 85.4932 5.31445C86.7764 5.31445 87.8223 5.70703 88.6309 6.49219C89.4453 7.27734 89.8994 8.34375 89.9932 9.69141L90.0107 10.3418C90.0107 11.8008 89.6035 12.9727 88.7891 13.8574C87.9746 14.7363 86.8818 15.1758 85.5107 15.1758C84.1396 15.1758 83.0439 14.7363 82.2236 13.8574C81.4092 12.9785 81.002 11.7832 81.002 10.2715V10.1572ZM83.542 10.3418C83.542 11.2441 83.7119 11.9355 84.0518 12.416C84.3916 12.8906 84.8779 13.1279 85.5107 13.1279C86.126 13.1279 86.6064 12.8936 86.9521 12.4248C87.2979 11.9502 87.4707 11.1943 87.4707 10.1572C87.4707 9.27246 87.2979 8.58691 86.9521 8.10059C86.6064 7.61426 86.1201 7.37109 85.4932 7.37109C84.8721 7.37109 84.3916 7.61426 84.0518 8.10059C83.7119 8.58105 83.542 9.32812 83.542 10.3418ZM97.2705 14.0332C96.6436 14.7949 95.7764 15.1758 94.6689 15.1758C93.6494 15.1758 92.8701 14.8828 92.3311 14.2969C91.7979 13.7109 91.5254 12.8525 91.5137 11.7217V5.49023H94.0537V11.6338C94.0537 12.624 94.5049 13.1191 95.4072 13.1191C96.2686 13.1191 96.8604 12.8203 97.1826 12.2227V5.49023H99.7314V15H97.3408L97.2705 14.0332ZM105.603 13.1279C106.071 13.1279 106.452 12.999 106.745 12.7412C107.038 12.4834 107.19 12.1406 107.202 11.7129H109.584C109.578 12.3574 109.402 12.9492 109.057 13.4883C108.711 14.0215 108.236 14.4375 107.633 14.7363C107.035 15.0293 106.373 15.1758 105.646 15.1758C104.287 15.1758 103.215 14.7451 102.43 13.8838C101.645 13.0166 101.252 11.8213 101.252 10.2979V10.1309C101.252 8.66602 101.642 7.49707 102.421 6.62402C103.2 5.75098 104.27 5.31445 105.629 5.31445C106.818 5.31445 107.771 5.6543 108.485 6.33398C109.206 7.00781 109.572 7.90723 109.584 9.03223H107.202C107.19 8.54004 107.038 8.1416 106.745 7.83691C106.452 7.52637 106.065 7.37109 105.585 7.37109C104.993 7.37109 104.545 7.58789 104.24 8.02148C103.941 8.44922 103.792 9.14648 103.792 10.1133V10.377C103.792 11.3555 103.941 12.0586 104.24 12.4863C104.539 12.9141 104.993 13.1279 105.603 13.1279ZM110.639 10.1572C110.639 9.21387 110.82 8.37305 111.184 7.63477C111.547 6.89648 112.068 6.3252 112.748 5.9209C113.434 5.5166 114.228 5.31445 115.13 5.31445C116.413 5.31445 117.459 5.70703 118.268 6.49219C119.082 7.27734 119.536 8.34375 119.63 9.69141L119.647 10.3418C119.647 11.8008 119.24 12.9727 118.426 13.8574C117.611 14.7363 116.519 15.1758 115.147 15.1758C113.776 15.1758 112.681 14.7363 111.86 13.8574C111.046 12.9785 110.639 11.7832 110.639 10.2715V10.1572ZM113.179 10.3418C113.179 11.2441 113.349 11.9355 113.688 12.416C114.028 12.8906 114.515 13.1279 115.147 13.1279C115.763 13.1279 116.243 12.8936 116.589 12.4248C116.935 11.9502 117.107 11.1943 117.107 10.1572C117.107 9.27246 116.935 8.58691 116.589 8.10059C116.243 7.61426 115.757 7.37109 115.13 7.37109C114.509 7.37109 114.028 7.61426 113.688 8.10059C113.349 8.58105 113.179 9.32812 113.179 10.3418Z" fill="white"/>
<path d="M131.662 11.6338C131.662 11.1533 131.527 10.7725 131.258 10.4912C130.994 10.2041 130.543 9.94043 129.904 9.7002C129.266 9.45996 128.715 9.22266 128.252 8.98828C127.789 8.74805 127.391 8.47559 127.057 8.1709C126.729 7.86035 126.471 7.49707 126.283 7.08105C126.102 6.66504 126.011 6.16992 126.011 5.5957C126.011 4.60547 126.327 3.79395 126.96 3.16113C127.593 2.52832 128.434 2.15918 129.482 2.05371V0.172852H130.889V2.08008C131.926 2.22656 132.737 2.66016 133.323 3.38086C133.909 4.0957 134.202 5.02441 134.202 6.16699H131.662C131.662 5.46387 131.516 4.93945 131.223 4.59375C130.936 4.24219 130.549 4.06641 130.062 4.06641C129.582 4.06641 129.21 4.2041 128.946 4.47949C128.683 4.74902 128.551 5.12402 128.551 5.60449C128.551 6.0498 128.68 6.40723 128.938 6.67676C129.195 6.94629 129.673 7.22168 130.37 7.50293C131.073 7.78418 131.65 8.05078 132.102 8.30273C132.553 8.54883 132.934 8.83008 133.244 9.14648C133.555 9.45703 133.792 9.81445 133.956 10.2188C134.12 10.6172 134.202 11.083 134.202 11.6162C134.202 12.6123 133.892 13.4209 133.271 14.042C132.649 14.6631 131.794 15.0293 130.704 15.1406V16.8896H129.307V15.1494C128.105 15.0205 127.174 14.5957 126.512 13.875C125.855 13.1484 125.527 12.1846 125.527 10.9834H128.067C128.067 11.6807 128.231 12.2168 128.56 12.5918C128.894 12.9609 129.371 13.1455 129.992 13.1455C130.508 13.1455 130.915 13.0107 131.214 12.7412C131.513 12.4658 131.662 12.0967 131.662 11.6338Z" fill="#00FF57"/>
</svg>
