<svg width="358" height="46" viewBox="0 0 358 46" fill="none" xmlns="http://www.w3.org/2000/svg">
<path d="M7.07812 27.9766V40H0.046875V5.875H13.3594C15.9219 5.875 18.1719 6.34375 20.1094 7.28125C22.0625 8.21875 23.5625 9.55469 24.6094 11.2891C25.6562 13.0078 26.1797 14.9688 26.1797 17.1719C26.1797 20.5156 25.0312 23.1562 22.7344 25.0938C20.4531 27.0156 17.2891 27.9766 13.2422 27.9766H7.07812ZM7.07812 22.2812H13.3594C15.2188 22.2812 16.6328 21.8438 17.6016 20.9688C18.5859 20.0938 19.0781 18.8438 19.0781 17.2188C19.0781 15.5469 18.5859 14.1953 17.6016 13.1641C16.6172 12.1328 15.2578 11.6016 13.5234 11.5703H7.07812V22.2812ZM29.2031 27.0859C29.2031 24.5703 29.6875 22.3281 30.6562 20.3594C31.625 18.3906 33.0156 16.8672 34.8281 15.7891C36.6562 14.7109 38.7734 14.1719 41.1797 14.1719C44.6016 14.1719 47.3906 15.2188 49.5469 17.3125C51.7188 19.4062 52.9297 22.25 53.1797 25.8438L53.2266 27.5781C53.2266 31.4688 52.1406 34.5938 49.9688 36.9531C47.7969 39.2969 44.8828 40.4688 41.2266 40.4688C37.5703 40.4688 34.6484 39.2969 32.4609 36.9531C30.2891 34.6094 29.2031 31.4219 29.2031 27.3906V27.0859ZM35.9766 27.5781C35.9766 29.9844 36.4297 31.8281 37.3359 33.1094C38.2422 34.375 39.5391 35.0078 41.2266 35.0078C42.8672 35.0078 44.1484 34.3828 45.0703 33.1328C45.9922 31.8672 46.4531 29.8516 46.4531 27.0859C46.4531 24.7266 45.9922 22.8984 45.0703 21.6016C44.1484 20.3047 42.8516 19.6562 41.1797 19.6562C39.5234 19.6562 38.2422 20.3047 37.3359 21.6016C36.4297 22.8828 35.9766 24.875 35.9766 27.5781ZM72.5859 37.4219C70.9141 39.4531 68.6016 40.4688 65.6484 40.4688C62.9297 40.4688 60.8516 39.6875 59.4141 38.125C57.9922 36.5625 57.2656 34.2734 57.2344 31.2578V14.6406H64.0078V31.0234C64.0078 33.6641 65.2109 34.9844 67.6172 34.9844C69.9141 34.9844 71.4922 34.1875 72.3516 32.5938V14.6406H79.1484V40H72.7734L72.5859 37.4219ZM94.8047 35.0078C96.0547 35.0078 97.0703 34.6641 97.8516 33.9766C98.6328 33.2891 99.0391 32.375 99.0703 31.2344H105.422C105.406 32.9531 104.938 34.5312 104.016 35.9688C103.094 37.3906 101.828 38.5 100.219 39.2969C98.625 40.0781 96.8594 40.4688 94.9219 40.4688C91.2969 40.4688 88.4375 39.3203 86.3438 37.0234C84.25 34.7109 83.2031 31.5234 83.2031 27.4609V27.0156C83.2031 23.1094 84.2422 19.9922 86.3203 17.6641C88.3984 15.3359 91.25 14.1719 94.875 14.1719C98.0469 14.1719 100.586 15.0781 102.492 16.8906C104.414 18.6875 105.391 21.0859 105.422 24.0859H99.0703C99.0391 22.7734 98.6328 21.7109 97.8516 20.8984C97.0703 20.0703 96.0391 19.6562 94.7578 19.6562C93.1797 19.6562 91.9844 20.2344 91.1719 21.3906C90.375 22.5312 89.9766 24.3906 89.9766 26.9688V27.6719C89.9766 30.2812 90.375 32.1562 91.1719 33.2969C91.9688 34.4375 93.1797 35.0078 94.8047 35.0078ZM108.234 27.0859C108.234 24.5703 108.719 22.3281 109.688 20.3594C110.656 18.3906 112.047 16.8672 113.859 15.7891C115.688 14.7109 117.805 14.1719 120.211 14.1719C123.633 14.1719 126.422 15.2188 128.578 17.3125C130.75 19.4062 131.961 22.25 132.211 25.8438L132.258 27.5781C132.258 31.4688 131.172 34.5938 129 36.9531C126.828 39.2969 123.914 40.4688 120.258 40.4688C116.602 40.4688 113.68 39.2969 111.492 36.9531C109.32 34.6094 108.234 31.4219 108.234 27.3906V27.0859ZM115.008 27.5781C115.008 29.9844 115.461 31.8281 116.367 33.1094C117.273 34.375 118.57 35.0078 120.258 35.0078C121.898 35.0078 123.18 34.3828 124.102 33.1328C125.023 31.8672 125.484 29.8516 125.484 27.0859C125.484 24.7266 125.023 22.8984 124.102 21.6016C123.18 20.3047 121.883 19.6562 120.211 19.6562C118.555 19.6562 117.273 20.3047 116.367 21.6016C115.461 22.8828 115.008 24.875 115.008 27.5781ZM163.078 40C162.766 39.3906 162.539 38.6328 162.398 37.7266C160.758 39.5547 158.625 40.4688 156 40.4688C153.516 40.4688 151.453 39.75 149.812 38.3125C148.188 36.875 147.375 35.0625 147.375 32.875C147.375 30.1875 148.367 28.125 150.352 26.6875C152.352 25.25 155.234 24.5234 159 24.5078H162.117V23.0547C162.117 21.8828 161.812 20.9453 161.203 20.2422C160.609 19.5391 159.664 19.1875 158.367 19.1875C157.227 19.1875 156.328 19.4609 155.672 20.0078C155.031 20.5547 154.711 21.3047 154.711 22.2578H147.938C147.938 20.7891 148.391 19.4297 149.297 18.1797C150.203 16.9297 151.484 15.9531 153.141 15.25C154.797 14.5312 156.656 14.1719 158.719 14.1719C161.844 14.1719 164.32 14.9609 166.148 16.5391C167.992 18.1016 168.914 20.3047 168.914 23.1484V34.1406C168.93 36.5469 169.266 38.3672 169.922 39.6016V40H163.078ZM157.477 35.2891C158.477 35.2891 159.398 35.0703 160.242 34.6328C161.086 34.1797 161.711 33.5781 162.117 32.8281V28.4688H159.586C156.195 28.4688 154.391 29.6406 154.172 31.9844L154.148 32.3828C154.148 33.2266 154.445 33.9219 155.039 34.4688C155.633 35.0156 156.445 35.2891 157.477 35.2891ZM193.547 27.9766V40H186.516V5.875H199.828C202.391 5.875 204.641 6.34375 206.578 7.28125C208.531 8.21875 210.031 9.55469 211.078 11.2891C212.125 13.0078 212.648 14.9688 212.648 17.1719C212.648 20.5156 211.5 23.1562 209.203 25.0938C206.922 27.0156 203.758 27.9766 199.711 27.9766H193.547ZM193.547 22.2812H199.828C201.688 22.2812 203.102 21.8438 204.07 20.9688C205.055 20.0938 205.547 18.8438 205.547 17.2188C205.547 15.5469 205.055 14.1953 204.07 13.1641C203.086 12.1328 201.727 11.6016 199.992 11.5703H193.547V22.2812ZM215.672 27.0859C215.672 24.5703 216.156 22.3281 217.125 20.3594C218.094 18.3906 219.484 16.8672 221.297 15.7891C223.125 14.7109 225.242 14.1719 227.648 14.1719C231.07 14.1719 233.859 15.2188 236.016 17.3125C238.188 19.4062 239.398 22.25 239.648 25.8438L239.695 27.5781C239.695 31.4688 238.609 34.5938 236.438 36.9531C234.266 39.2969 231.352 40.4688 227.695 40.4688C224.039 40.4688 221.117 39.2969 218.93 36.9531C216.758 34.6094 215.672 31.4219 215.672 27.3906V27.0859ZM222.445 27.5781C222.445 29.9844 222.898 31.8281 223.805 33.1094C224.711 34.375 226.008 35.0078 227.695 35.0078C229.336 35.0078 230.617 34.3828 231.539 33.1328C232.461 31.8672 232.922 29.8516 232.922 27.0859C232.922 24.7266 232.461 22.8984 231.539 21.6016C230.617 20.3047 229.32 19.6562 227.648 19.6562C225.992 19.6562 224.711 20.3047 223.805 21.6016C222.898 22.8828 222.445 24.875 222.445 27.5781ZM259.055 37.4219C257.383 39.4531 255.07 40.4688 252.117 40.4688C249.398 40.4688 247.32 39.6875 245.883 38.125C244.461 36.5625 243.734 34.2734 243.703 31.2578V14.6406H250.477V31.0234C250.477 33.6641 251.68 34.9844 254.086 34.9844C256.383 34.9844 257.961 34.1875 258.82 32.5938V14.6406H265.617V40H259.242L259.055 37.4219ZM281.273 35.0078C282.523 35.0078 283.539 34.6641 284.32 33.9766C285.102 33.2891 285.508 32.375 285.539 31.2344H291.891C291.875 32.9531 291.406 34.5312 290.484 35.9688C289.562 37.3906 288.297 38.5 286.688 39.2969C285.094 40.0781 283.328 40.4688 281.391 40.4688C277.766 40.4688 274.906 39.3203 272.812 37.0234C270.719 34.7109 269.672 31.5234 269.672 27.4609V27.0156C269.672 23.1094 270.711 19.9922 272.789 17.6641C274.867 15.3359 277.719 14.1719 281.344 14.1719C284.516 14.1719 287.055 15.0781 288.961 16.8906C290.883 18.6875 291.859 21.0859 291.891 24.0859H285.539C285.508 22.7734 285.102 21.7109 284.32 20.8984C283.539 20.0703 282.508 19.6562 281.227 19.6562C279.648 19.6562 278.453 20.2344 277.641 21.3906C276.844 22.5312 276.445 24.3906 276.445 26.9688V27.6719C276.445 30.2812 276.844 32.1562 277.641 33.2969C278.438 34.4375 279.648 35.0078 281.273 35.0078ZM294.703 27.0859C294.703 24.5703 295.188 22.3281 296.156 20.3594C297.125 18.3906 298.516 16.8672 300.328 15.7891C302.156 14.7109 304.273 14.1719 306.68 14.1719C310.102 14.1719 312.891 15.2188 315.047 17.3125C317.219 19.4062 318.43 22.25 318.68 25.8438L318.727 27.5781C318.727 31.4688 317.641 34.5938 315.469 36.9531C313.297 39.2969 310.383 40.4688 306.727 40.4688C303.07 40.4688 300.148 39.2969 297.961 36.9531C295.789 34.6094 294.703 31.4219 294.703 27.3906V27.0859ZM301.477 27.5781C301.477 29.9844 301.93 31.8281 302.836 33.1094C303.742 34.375 305.039 35.0078 306.727 35.0078C308.367 35.0078 309.648 34.3828 310.57 33.1328C311.492 31.8672 311.953 29.8516 311.953 27.0859C311.953 24.7266 311.492 22.8984 310.57 21.6016C309.648 20.3047 308.352 19.6562 306.68 19.6562C305.023 19.6562 303.742 20.3047 302.836 21.6016C301.93 22.8828 301.477 24.875 301.477 27.5781Z" fill="white"/>
<path d="M350.766 31.0234C350.766 29.7422 350.406 28.7266 349.688 27.9766C348.984 27.2109 347.781 26.5078 346.078 25.8672C344.375 25.2266 342.906 24.5938 341.672 23.9688C340.438 23.3281 339.375 22.6016 338.484 21.7891C337.609 20.9609 336.922 19.9922 336.422 18.8828C335.938 17.7734 335.695 16.4531 335.695 14.9219C335.695 12.2812 336.539 10.1172 338.227 8.42969C339.914 6.74219 342.156 5.75781 344.953 5.47656V0.460938H348.703V5.54688C351.469 5.9375 353.633 7.09375 355.195 9.01562C356.758 10.9219 357.539 13.3984 357.539 16.4453H350.766C350.766 14.5703 350.375 13.1719 349.594 12.25C348.828 11.3125 347.797 10.8438 346.5 10.8438C345.219 10.8438 344.227 11.2109 343.523 11.9453C342.82 12.6641 342.469 13.6641 342.469 14.9453C342.469 16.1328 342.812 17.0859 343.5 17.8047C344.188 18.5234 345.461 19.2578 347.32 20.0078C349.195 20.7578 350.734 21.4688 351.938 22.1406C353.141 22.7969 354.156 23.5469 354.984 24.3906C355.812 25.2188 356.445 26.1719 356.883 27.25C357.32 28.3125 357.539 29.5547 357.539 30.9766C357.539 33.6328 356.711 35.7891 355.055 37.4453C353.398 39.1016 351.117 40.0781 348.211 40.375V45.0391H344.484V40.3984C341.281 40.0547 338.797 38.9219 337.031 37C335.281 35.0625 334.406 32.4922 334.406 29.2891H341.18C341.18 31.1484 341.617 32.5781 342.492 33.5781C343.383 34.5625 344.656 35.0547 346.312 35.0547C347.688 35.0547 348.773 34.6953 349.57 33.9766C350.367 33.2422 350.766 32.2578 350.766 31.0234Z" fill="#00FF57"/>
</svg>
