<svg width="203" height="26" viewBox="0 0 203 26" fill="none" xmlns="http://www.w3.org/2000/svg">
<path d="M48.9296 1H4.07036C2.37465 1 1 2.68298 1 4.75904V21.241C1 23.317 2.37465 25 4.07036 25H48.9296C50.6254 25 52 23.317 52 21.241V4.75904C52 2.68298 50.6254 1 48.9296 1Z" fill="#008000" stroke="black"/>
<path d="M9.27087 15.6088V20.1176H6.63416V7.32068H11.6263C12.5873 7.32068 13.431 7.49646 14.1576 7.84802C14.89 8.19958 15.4525 8.70056 15.8451 9.35095C16.2377 9.99548 16.434 10.7308 16.434 11.557C16.434 12.8109 16.0033 13.8011 15.142 14.5277C14.2865 15.2484 13.1 15.6088 11.5824 15.6088H9.27087ZM9.27087 13.473H11.6263C12.3236 13.473 12.8539 13.309 13.2172 12.9808C13.5863 12.6527 13.7709 12.184 13.7709 11.5746C13.7709 10.9476 13.5863 10.4408 13.2172 10.0541C12.848 9.66736 12.3383 9.46814 11.6879 9.45642H9.27087V13.473ZM23.4916 20.1176C23.3744 19.889 23.2894 19.6049 23.2367 19.265C22.6215 19.9506 21.8217 20.2933 20.8373 20.2933C19.9056 20.2933 19.1322 20.0238 18.517 19.4847C17.9076 18.9457 17.6029 18.266 17.6029 17.4457C17.6029 16.4379 17.975 15.6644 18.7191 15.1254C19.4691 14.5863 20.5502 14.3138 21.9623 14.308H23.1312V13.7631C23.1312 13.3236 23.017 12.972 22.7885 12.7084C22.5658 12.4447 22.2113 12.3129 21.725 12.3129C21.2972 12.3129 20.9603 12.4154 20.7142 12.6205C20.474 12.8256 20.3539 13.1068 20.3539 13.4642H17.8138C17.8138 12.9135 17.9838 12.4037 18.3236 11.9349C18.6635 11.4662 19.1439 11.1 19.765 10.8363C20.3861 10.5668 21.0834 10.432 21.8568 10.432C23.0287 10.432 23.9574 10.7279 24.6429 11.3197C25.3344 11.9056 25.6801 12.7318 25.6801 13.7982V17.9203C25.6859 18.8226 25.8119 19.5052 26.058 19.9681V20.1176H23.4916ZM21.391 18.351C21.766 18.351 22.1117 18.2689 22.4281 18.1049C22.7445 17.9349 22.9789 17.7094 23.1312 17.4281V15.7933H22.182C20.9105 15.7933 20.2338 16.2328 20.1517 17.1117L20.1429 17.2611C20.1429 17.5775 20.2543 17.8383 20.4769 18.0433C20.6996 18.2484 21.0043 18.351 21.391 18.351ZM30.4349 15.6088V20.1176H27.7982V7.32068H32.7904C33.7513 7.32068 34.5951 7.49646 35.3217 7.84802C36.0541 8.19958 36.6166 8.70056 37.0092 9.35095C37.4017 9.99548 37.598 10.7308 37.598 11.557C37.598 12.8109 37.1674 13.8011 36.306 14.5277C35.4506 15.2484 34.264 15.6088 32.7465 15.6088H30.4349ZM30.4349 13.473H32.7904C33.4877 13.473 34.0179 13.309 34.3812 12.9808C34.7504 12.6527 34.9349 12.184 34.9349 11.5746C34.9349 10.9476 34.7504 10.4408 34.3812 10.0541C34.0121 9.66736 33.5023 9.46814 32.8519 9.45642H30.4349V13.473ZM45.2181 16.7513C45.2181 16.2709 45.0834 15.89 44.8138 15.6088C44.5502 15.3217 44.099 15.058 43.4603 14.8177C42.8217 14.5775 42.2709 14.3402 41.808 14.1058C41.3451 13.8656 40.9467 13.5931 40.6127 13.2885C40.2845 12.9779 40.0267 12.6146 39.8392 12.1986C39.6576 11.7826 39.5668 11.2875 39.5668 10.7133C39.5668 9.72302 39.8832 8.9115 40.516 8.27869C41.1488 7.64587 41.9896 7.27673 43.0385 7.17126V5.29041H44.4447V7.19763C45.4818 7.34412 46.2933 7.77771 46.8793 8.49841C47.4652 9.21326 47.7582 10.142 47.7582 11.2845H45.2181C45.2181 10.5814 45.0717 10.057 44.7787 9.7113C44.4916 9.35974 44.1049 9.18396 43.6185 9.18396C43.1381 9.18396 42.766 9.32166 42.5023 9.59705C42.2386 9.86658 42.1068 10.2416 42.1068 10.722C42.1068 11.1674 42.2357 11.5248 42.4935 11.7943C42.7513 12.0638 43.2289 12.3392 43.9261 12.6205C44.6293 12.9017 45.2064 13.1683 45.6576 13.4203C46.1088 13.6664 46.4896 13.9476 46.8002 14.264C47.1107 14.5746 47.348 14.932 47.5121 15.3363C47.6761 15.7347 47.7582 16.2006 47.7582 16.7338C47.7582 17.7299 47.4476 18.5385 46.8265 19.1595C46.2054 19.7806 45.35 20.1469 44.2601 20.2582V22.0072H42.8627V20.267C41.6615 20.1381 40.7299 19.7133 40.0677 18.9926C39.4115 18.266 39.0834 17.3021 39.0834 16.101H41.6234C41.6234 16.7982 41.7875 17.3344 42.1156 17.7094C42.4496 18.0785 42.9271 18.2631 43.5482 18.2631C44.0638 18.2631 44.4711 18.1283 44.7699 17.8588C45.0687 17.5834 45.2181 17.2142 45.2181 16.7513Z" fill="#FFFF00"/>
<path d="M65.7793 17.4912V22H63.1426V9.20312H68.1348C69.0957 9.20312 69.9395 9.37891 70.666 9.73047C71.3984 10.082 71.9609 10.583 72.3535 11.2334C72.7461 11.8779 72.9424 12.6133 72.9424 13.4395C72.9424 14.6934 72.5117 15.6836 71.6504 16.4102C70.7949 17.1309 69.6084 17.4912 68.0908 17.4912H65.7793ZM65.7793 15.3555H68.1348C68.832 15.3555 69.3623 15.1914 69.7256 14.8633C70.0947 14.5352 70.2793 14.0664 70.2793 13.457C70.2793 12.8301 70.0947 12.3232 69.7256 11.9365C69.3564 11.5498 68.8467 11.3506 68.1963 11.3389H65.7793V15.3555ZM74.0762 17.1572C74.0762 16.2139 74.2578 15.373 74.6211 14.6348C74.9844 13.8965 75.5059 13.3252 76.1855 12.9209C76.8711 12.5166 77.665 12.3145 78.5674 12.3145C79.8506 12.3145 80.8965 12.707 81.7051 13.4922C82.5195 14.2773 82.9736 15.3438 83.0674 16.6914L83.085 17.3418C83.085 18.8008 82.6777 19.9727 81.8633 20.8574C81.0488 21.7363 79.9561 22.1758 78.585 22.1758C77.2139 22.1758 76.1182 21.7363 75.2979 20.8574C74.4834 19.9785 74.0762 18.7832 74.0762 17.2715V17.1572ZM76.6162 17.3418C76.6162 18.2441 76.7861 18.9355 77.126 19.416C77.4658 19.8906 77.9521 20.1279 78.585 20.1279C79.2002 20.1279 79.6807 19.8936 80.0264 19.4248C80.3721 18.9502 80.5449 18.1943 80.5449 17.1572C80.5449 16.2725 80.3721 15.5869 80.0264 15.1006C79.6807 14.6143 79.1943 14.3711 78.5674 14.3711C77.9463 14.3711 77.4658 14.6143 77.126 15.1006C76.7861 15.5811 76.6162 16.3281 76.6162 17.3418ZM90.3447 21.0332C89.7178 21.7949 88.8506 22.1758 87.7432 22.1758C86.7236 22.1758 85.9443 21.8828 85.4053 21.2969C84.8721 20.7109 84.5996 19.8525 84.5879 18.7217V12.4902H87.1279V18.6338C87.1279 19.624 87.5791 20.1191 88.4814 20.1191C89.3428 20.1191 89.9346 19.8203 90.2568 19.2227V12.4902H92.8057V22H90.415L90.3447 21.0332ZM98.6768 20.1279C99.1455 20.1279 99.5264 19.999 99.8193 19.7412C100.112 19.4834 100.265 19.1406 100.276 18.7129H102.658C102.652 19.3574 102.477 19.9492 102.131 20.4883C101.785 21.0215 101.311 21.4375 100.707 21.7363C100.109 22.0293 99.4473 22.1758 98.7207 22.1758C97.3613 22.1758 96.2891 21.7451 95.5039 20.8838C94.7188 20.0166 94.3262 18.8213 94.3262 17.2979V17.1309C94.3262 15.666 94.7158 14.4971 95.4951 13.624C96.2744 12.751 97.3438 12.3145 98.7031 12.3145C99.8926 12.3145 100.845 12.6543 101.56 13.334C102.28 14.0078 102.646 14.9072 102.658 16.0322H100.276C100.265 15.54 100.112 15.1416 99.8193 14.8369C99.5264 14.5264 99.1396 14.3711 98.6592 14.3711C98.0674 14.3711 97.6191 14.5879 97.3145 15.0215C97.0156 15.4492 96.8662 16.1465 96.8662 17.1133V17.377C96.8662 18.3555 97.0156 19.0586 97.3145 19.4863C97.6133 19.9141 98.0674 20.1279 98.6768 20.1279ZM103.713 17.1572C103.713 16.2139 103.895 15.373 104.258 14.6348C104.621 13.8965 105.143 13.3252 105.822 12.9209C106.508 12.5166 107.302 12.3145 108.204 12.3145C109.487 12.3145 110.533 12.707 111.342 13.4922C112.156 14.2773 112.61 15.3438 112.704 16.6914L112.722 17.3418C112.722 18.8008 112.314 19.9727 111.5 20.8574C110.686 21.7363 109.593 22.1758 108.222 22.1758C106.851 22.1758 105.755 21.7363 104.935 20.8574C104.12 19.9785 103.713 18.7832 103.713 17.2715V17.1572ZM106.253 17.3418C106.253 18.2441 106.423 18.9355 106.763 19.416C107.103 19.8906 107.589 20.1279 108.222 20.1279C108.837 20.1279 109.317 19.8936 109.663 19.4248C110.009 18.9502 110.182 18.1943 110.182 17.1572C110.182 16.2725 110.009 15.5869 109.663 15.1006C109.317 14.6143 108.831 14.3711 108.204 14.3711C107.583 14.3711 107.103 14.6143 106.763 15.1006C106.423 15.5811 106.253 16.3281 106.253 17.3418ZM124.279 22C124.162 21.7715 124.077 21.4873 124.024 21.1475C123.409 21.833 122.609 22.1758 121.625 22.1758C120.693 22.1758 119.92 21.9062 119.305 21.3672C118.695 20.8281 118.391 20.1484 118.391 19.3281C118.391 18.3203 118.763 17.5469 119.507 17.0078C120.257 16.4688 121.338 16.1963 122.75 16.1904H123.919V15.6455C123.919 15.2061 123.805 14.8545 123.576 14.5908C123.354 14.3271 122.999 14.1953 122.513 14.1953C122.085 14.1953 121.748 14.2979 121.502 14.5029C121.262 14.708 121.142 14.9893 121.142 15.3467H118.602C118.602 14.7959 118.771 14.2861 119.111 13.8174C119.451 13.3486 119.932 12.9824 120.553 12.7188C121.174 12.4492 121.871 12.3145 122.645 12.3145C123.816 12.3145 124.745 12.6104 125.431 13.2021C126.122 13.7881 126.468 14.6143 126.468 15.6807V19.8027C126.474 20.7051 126.6 21.3877 126.846 21.8506V22H124.279ZM122.179 20.2334C122.554 20.2334 122.899 20.1514 123.216 19.9873C123.532 19.8174 123.767 19.5918 123.919 19.3105V17.6758H122.97C121.698 17.6758 121.021 18.1152 120.939 18.9941L120.931 19.1436C120.931 19.46 121.042 19.7207 121.265 19.9258C121.487 20.1309 121.792 20.2334 122.179 20.2334ZM135.705 17.4912V22H133.068V9.20312H138.061C139.021 9.20312 139.865 9.37891 140.592 9.73047C141.324 10.082 141.887 10.583 142.279 11.2334C142.672 11.8779 142.868 12.6133 142.868 13.4395C142.868 14.6934 142.438 15.6836 141.576 16.4102C140.721 17.1309 139.534 17.4912 138.017 17.4912H135.705ZM135.705 15.3555H138.061C138.758 15.3555 139.288 15.1914 139.651 14.8633C140.021 14.5352 140.205 14.0664 140.205 13.457C140.205 12.8301 140.021 12.3232 139.651 11.9365C139.282 11.5498 138.772 11.3506 138.122 11.3389H135.705V15.3555ZM144.002 17.1572C144.002 16.2139 144.184 15.373 144.547 14.6348C144.91 13.8965 145.432 13.3252 146.111 12.9209C146.797 12.5166 147.591 12.3145 148.493 12.3145C149.776 12.3145 150.822 12.707 151.631 13.4922C152.445 14.2773 152.899 15.3438 152.993 16.6914L153.011 17.3418C153.011 18.8008 152.604 19.9727 151.789 20.8574C150.975 21.7363 149.882 22.1758 148.511 22.1758C147.14 22.1758 146.044 21.7363 145.224 20.8574C144.409 19.9785 144.002 18.7832 144.002 17.2715V17.1572ZM146.542 17.3418C146.542 18.2441 146.712 18.9355 147.052 19.416C147.392 19.8906 147.878 20.1279 148.511 20.1279C149.126 20.1279 149.606 19.8936 149.952 19.4248C150.298 18.9502 150.471 18.1943 150.471 17.1572C150.471 16.2725 150.298 15.5869 149.952 15.1006C149.606 14.6143 149.12 14.3711 148.493 14.3711C147.872 14.3711 147.392 14.6143 147.052 15.1006C146.712 15.5811 146.542 16.3281 146.542 17.3418ZM160.271 21.0332C159.644 21.7949 158.776 22.1758 157.669 22.1758C156.649 22.1758 155.87 21.8828 155.331 21.2969C154.798 20.7109 154.525 19.8525 154.514 18.7217V12.4902H157.054V18.6338C157.054 19.624 157.505 20.1191 158.407 20.1191C159.269 20.1191 159.86 19.8203 160.183 19.2227V12.4902H162.731V22H160.341L160.271 21.0332ZM168.603 20.1279C169.071 20.1279 169.452 19.999 169.745 19.7412C170.038 19.4834 170.19 19.1406 170.202 18.7129H172.584C172.578 19.3574 172.402 19.9492 172.057 20.4883C171.711 21.0215 171.236 21.4375 170.633 21.7363C170.035 22.0293 169.373 22.1758 168.646 22.1758C167.287 22.1758 166.215 21.7451 165.43 20.8838C164.645 20.0166 164.252 18.8213 164.252 17.2979V17.1309C164.252 15.666 164.642 14.4971 165.421 13.624C166.2 12.751 167.27 12.3145 168.629 12.3145C169.818 12.3145 170.771 12.6543 171.485 13.334C172.206 14.0078 172.572 14.9072 172.584 16.0322H170.202C170.19 15.54 170.038 15.1416 169.745 14.8369C169.452 14.5264 169.065 14.3711 168.585 14.3711C167.993 14.3711 167.545 14.5879 167.24 15.0215C166.941 15.4492 166.792 16.1465 166.792 17.1133V17.377C166.792 18.3555 166.941 19.0586 167.24 19.4863C167.539 19.9141 167.993 20.1279 168.603 20.1279ZM173.639 17.1572C173.639 16.2139 173.82 15.373 174.184 14.6348C174.547 13.8965 175.068 13.3252 175.748 12.9209C176.434 12.5166 177.228 12.3145 178.13 12.3145C179.413 12.3145 180.459 12.707 181.268 13.4922C182.082 14.2773 182.536 15.3438 182.63 16.6914L182.647 17.3418C182.647 18.8008 182.24 19.9727 181.426 20.8574C180.611 21.7363 179.519 22.1758 178.147 22.1758C176.776 22.1758 175.681 21.7363 174.86 20.8574C174.046 19.9785 173.639 18.7832 173.639 17.2715V17.1572ZM176.179 17.3418C176.179 18.2441 176.349 18.9355 176.688 19.416C177.028 19.8906 177.515 20.1279 178.147 20.1279C178.763 20.1279 179.243 19.8936 179.589 19.4248C179.935 18.9502 180.107 18.1943 180.107 17.1572C180.107 16.2725 179.935 15.5869 179.589 15.1006C179.243 14.6143 178.757 14.3711 178.13 14.3711C177.509 14.3711 177.028 14.6143 176.688 15.1006C176.349 15.5811 176.179 16.3281 176.179 17.3418Z" fill="black"/>
<path d="M194.662 18.6338C194.662 18.1533 194.527 17.7725 194.258 17.4912C193.994 17.2041 193.543 16.9404 192.904 16.7002C192.266 16.46 191.715 16.2227 191.252 15.9883C190.789 15.748 190.391 15.4756 190.057 15.1709C189.729 14.8604 189.471 14.4971 189.283 14.0811C189.102 13.665 189.011 13.1699 189.011 12.5957C189.011 11.6055 189.327 10.7939 189.96 10.1611C190.593 9.52832 191.434 9.15918 192.482 9.05371V7.17285H193.889V9.08008C194.926 9.22656 195.737 9.66016 196.323 10.3809C196.909 11.0957 197.202 12.0244 197.202 13.167H194.662C194.662 12.4639 194.516 11.9395 194.223 11.5938C193.936 11.2422 193.549 11.0664 193.062 11.0664C192.582 11.0664 192.21 11.2041 191.946 11.4795C191.683 11.749 191.551 12.124 191.551 12.6045C191.551 13.0498 191.68 13.4072 191.938 13.6768C192.195 13.9463 192.673 14.2217 193.37 14.5029C194.073 14.7842 194.65 15.0508 195.102 15.3027C195.553 15.5488 195.934 15.8301 196.244 16.1465C196.555 16.457 196.792 16.8145 196.956 17.2188C197.12 17.6172 197.202 18.083 197.202 18.6162C197.202 19.6123 196.892 20.4209 196.271 21.042C195.649 21.6631 194.794 22.0293 193.704 22.1406V23.8896H192.307V22.1494C191.105 22.0205 190.174 21.5957 189.512 20.875C188.855 20.1484 188.527 19.1846 188.527 17.9834H191.067C191.067 18.6807 191.231 19.2168 191.56 19.5918C191.894 19.9609 192.371 20.1455 192.992 20.1455C193.508 20.1455 193.915 20.0107 194.214 19.7412C194.513 19.4658 194.662 19.0967 194.662 18.6338Z" fill="#00FF57"/>
</svg>
