<?xml version="1.0" standalone="no"?>
<!DOCTYPE svg PUBLIC "-//W3C//DTD SVG 20010904//EN"
 "http://www.w3.org/TR/2001/REC-SVG-20010904/DTD/svg10.dtd">
<svg version="1.0" xmlns="http://www.w3.org/2000/svg"
 width="436.000000pt" height="50.000000pt" viewBox="0 0 436.000000 50.000000"
 preserveAspectRatio="xMidYMid meet">

<g transform="translate(0.000000,50.000000) scale(0.100000,-0.100000)"
fill="#000000" stroke="none">
<path d="M4218 469 c-3 -26 -9 -33 -43 -45 -49 -16 -65 -37 -65 -84 0 -47 16
-68 65 -84 l40 -14 3 -62 3 -63 -38 6 c-21 3 -46 8 -55 12 -14 5 -18 2 -18
-13 0 -17 8 -23 38 -27 70 -12 72 -14 72 -56 0 -52 18 -50 22 3 3 40 5 43 40
51 49 12 73 40 73 87 0 47 -25 76 -77 92 l-38 11 0 59 c0 63 8 70 64 48 22 -8
26 -7 26 10 0 19 -11 24 -65 32 -14 2 -21 12 -23 36 -4 41 -20 42 -24 1z m2
-124 c0 -60 -15 -71 -52 -38 -25 22 -23 59 4 77 39 28 48 21 48 -39z m78 -127
c20 -17 14 -65 -10 -82 -40 -28 -48 -21 -48 45 0 58 1 60 23 53 12 -3 28 -11
35 -16z"/>
</g>
</svg>
